<svg xmlns="http://www.w3.org/2000/svg" version="1.0" width="512.000000pt" height="512.000000pt" viewBox="0 0 512.000000 512.000000" preserveAspectRatio="xMidYMid meet">

<g transform="translate(0.000000,512.000000) scale(0.100000,-0.100000)" fill="#DEAD6F" stroke="none">
<path d="M3027 4464 c-122 -27 -220 -74 -312 -150 l-40 -33 -580 -4 c-641 -4 -653 -6 -852 -72 -145 -49 -217 -87 -233 -124 -19 -47 -5 -98 33 -121 44 -27 61 -26 168 19 189 79 326 101 626 101 l202 0 -35 -57 c-19 -32 -45 -89 -57 -128 -21 -66 -22 -87 -22 -410 0 -324 1 -343 22 -410 41 -128 112 -226 210 -291 338 -224 777 -19 828 388 12 93 -28 148 -106 148 -51 0 -84 -43 -92 -119 -14 -127 -77 -220 -185 -273 -58 -29 -76 -33 -147 -33 -65 0 -90 5 -135 26 -104 49 -171 140 -190 255 -13 76 -13 542 0 618 19 115 86 206 190 255 45 21 70 26 135 26 103 0 175 -31 250 -110 48 -49 58 -55 95 -55 33 0 48 6 71 29 46 47 39 102 -23 167 l-29 31 38 33 c20 18 65 45 98 60 116 53 221 62 386 34 404 -69 717 -358 827 -762 l26 -97 6 -695 c5 -683 6 -696 28 -761 47 -140 155 -265 287 -330 78 -38 132 -52 247 -64 68 -7 116 -37 140 -85 38 -75 5 -169 -72 -208 -42 -21 -55 -22 -291 -22 -345 0 -461 24 -642 131 -84 50 -226 187 -282 273 -56 87 -138 296 -122 312 2 2 37 -3 78 -12 143 -31 258 -5 339 76 61 61 85 119 85 210 0 62 -5 85 -28 132 -46 94 -131 152 -239 165 -64 8 -83 27 -91 91 -13 108 -71 193 -165 239 -81 40 -183 40 -264 0 -69 -34 -121 -91 -149 -166 -18 -47 -20 -70 -16 -142 10 -152 69 -291 177 -411 48 -54 51 -60 60 -136 6 -44 19 -113 30 -153 l20 -74 -28 -23 c-44 -37 -217 -120 -308 -148 -130 -39 -124 -17 -124 -426 l0 -338 -220 0 -220 0 0 326 c0 204 -4 332 -10 345 -27 49 -28 49 -651 49 l-581 0 -34 -34 -34 -34 0 -326 0 -326 -220 0 -220 0 0 550 c0 452 -3 564 -15 624 -16 78 -47 161 -100 266 -83 167 -120 334 -119 550 1 180 26 314 88 463 43 104 46 148 12 182 -34 34 -71 41 -113 21 -28 -13 -41 -31 -68 -89 -57 -123 -115 -348 -115 -446 0 -45 -4 -51 -62 -80 -59 -29 -132 -106 -161 -169 -22 -46 -22 -56 -25 -607 -2 -411 0 -567 9 -588 13 -30 55 -57 89 -57 33 0 75 26 88 55 9 19 12 168 12 563 0 532 0 537 22 572 l21 35 22 -120 c26 -139 71 -277 128 -390 87 -175 81 -116 87 -790 5 -584 6 -601 26 -640 11 -22 40 -53 63 -70 l43 -30 528 0 528 0 44 30 c25 18 52 49 66 75 21 43 22 54 22 327 l0 283 214 0 215 0 3 -288 3 -289 30 -48 c19 -30 45 -56 70 -69 39 -20 55 -21 540 -24 337 -2 512 0 537 8 50 14 97 56 119 105 17 36 19 71 19 338 0 163 3 297 6 297 4 0 37 -28 73 -63 159 -150 368 -247 594 -277 50 -7 192 -10 353 -8 l270 3 65 32 c79 39 140 102 177 181 23 49 27 70 26 147 0 109 -21 161 -91 236 -68 73 -122 97 -256 114 -134 18 -196 46 -263 117 -25 27 -57 74 -72 106 l-27 57 -3 331 -3 331 47 12 c128 32 268 145 332 268 55 104 62 161 62 504 0 175 -5 331 -11 365 -36 198 -204 372 -405 420 -128 30 -296 1 -398 -68 l-38 -27 -70 53 c-142 109 -310 187 -487 227 -119 27 -316 33 -404 13z m1433 -425 c72 -38 113 -82 149 -159 l26 -55 0 -340 0 -340 -33 -67 c-35 -72 -87 -124 -156 -156 l-41 -20 -6 257 c-7 278 -16 345 -71 501 -39 109 -73 176 -142 280 -36 53 -53 87 -47 93 5 5 34 18 63 29 80 28 178 20 258 -23z m-1059 -1377 c26 -24 33 -39 40 -91 19 -138 102 -221 241 -240 51 -7 66 -14 90 -40 39 -44 37 -84 -6 -127 -40 -40 -72 -43 -175 -19 -161 38 -294 169 -336 330 -27 106 -16 172 36 201 39 21 76 17 110 -14z m-51 -1472 l0 -350 -140 0 -140 0 0 288 0 288 83 33 c45 17 105 45 132 60 28 16 53 29 58 30 4 1 7 -156 7 -349z m-1750 -90 l0 -260 -140 0 -140 0 0 260 0 260 140 0 140 0 0 -260z"/>
<path d="M692 3865 c-38 -17 -66 -71 -56 -110 11 -43 52 -75 96 -75 86 0 131 104 72 164 -15 14 -32 26 -40 26 -7 0 -18 2 -26 5 -7 2 -28 -2 -46 -10z"/>
<path d="M3465 3388 c-74 -40 -73 -139 2 -177 36 -18 71 -13 105 18 27 24 33 36 33 71 0 73 -79 122 -140 88z"/>
</g>
</svg>