<?xml version="1.0" standalone="no"?>
<!DOCTYPE svg PUBLIC "-//W3C//DTD SVG 20010904//EN"
 "http://www.w3.org/TR/2001/REC-SVG-20010904/DTD/svg10.dtd">
<svg version="1.0" xmlns="http://www.w3.org/2000/svg"
 width="1080.000000pt" height="1080.000000pt" viewBox="0 0 1080.000000 1080.000000"
 preserveAspectRatio="xMidYMid meet">

<g transform="translate(0.000000,1080.000000) scale(0.100000,-0.100000)"
fill="white" stroke="none">
<path d="M2801 8738 c-74 -11 -146 -45 -182 -86 -52 -59 -32 -110 70 -182 12
-8 34 -44 49 -80 22 -55 27 -80 27 -160 0 -116 -22 -167 -102 -240 -82 -75
-153 -111 -488 -249 -150 -62 -150 -62 -180 -113 -16 -28 -93 -117 -170 -197
-195 -203 -222 -244 -185 -281 17 -17 34 -20 112 -20 85 0 159 -14 293 -55 11
-3 9 0 -5 6 -189 89 -269 129 -289 146 -23 19 -23 20 -6 54 83 161 227 304
422 418 57 34 313 153 549 256 l31 14 7 -89 c4 -49 18 -154 33 -232 18 -97 26
-180 27 -260 1 -104 -1 -119 -20 -145 -20 -26 -26 -28 -90 -28 -58 0 -81 6
-144 36 -41 20 -93 39 -115 41 -58 8 -172 58 -314 138 -68 38 -127 70 -130 70
-3 -1 26 -30 64 -66 69 -63 72 -65 215 -110 281 -87 335 -106 403 -140 86 -44
148 -101 182 -167 l27 -52 -6 45 c-14 110 -28 269 -24 280 2 7 47 -329 101
-746 53 -416 95 -759 93 -761 -2 -2 -15 20 -30 48 -14 29 -26 46 -26 37 0 -37
-94 -198 -166 -283 -42 -49 -111 -132 -154 -183 -175 -209 -388 -583 -468
-822 -89 -267 -116 -437 -110 -682 l4 -166 -42 29 c-89 61 -153 161 -178 280
-8 35 -15 54 -15 43 -2 -50 -35 -126 -68 -154 -51 -46 -82 -41 -139 23 -168
185 -250 347 -414 817 -51 146 -112 308 -135 360 -164 365 -214 944 -96 1109
13 17 26 31 30 31 4 0 8 -35 9 -77 8 -294 146 -558 444 -849 137 -134 224
-205 448 -368 8 -6 2 4 -13 23 -35 42 -136 136 -282 261 -148 128 -296 278
-368 375 -77 103 -142 239 -162 339 -9 43 -23 92 -33 110 -13 24 -17 55 -16
141 0 97 4 121 33 204 56 166 154 321 202 321 16 0 17 -5 11 -32 -4 -18 -7
-107 -7 -198 1 -139 4 -179 24 -253 94 -361 334 -673 701 -909 47 -30 96 -61
110 -68 24 -13 24 -12 10 5 -8 10 -62 56 -120 103 -329 268 -384 320 -478 447
-84 114 -152 275 -189 445 -26 121 -26 422 0 535 19 80 53 148 72 142 18 -6
93 -125 115 -184 12 -32 39 -137 60 -233 43 -196 75 -292 124 -365 54 -80 350
-372 478 -470 120 -93 183 -135 177 -118 -7 17 -141 133 -197 170 -173 115
-411 419 -513 654 -60 137 -85 266 -63 323 9 24 20 20 71 -26 72 -67 153 -174
256 -340 113 -182 169 -240 367 -380 199 -141 256 -210 248 -299 l-5 -47 40
26 c32 22 53 27 126 30 l86 4 -7 77 c-10 114 -9 210 2 232 13 24 9 24 -32 -1
-67 -40 -88 -31 -188 83 l-25 28 62 -30 c79 -39 95 -40 24 -1 -125 69 -234
178 -348 349 -68 102 -162 281 -193 369 -13 34 -24 61 -26 59 -9 -9 21 -129
57 -230 22 -60 37 -113 33 -116 -3 -3 -38 30 -77 74 -82 92 -240 255 -662 685
-301 306 -491 512 -635 690 -66 82 -78 102 -83 145 -12 91 -67 106 -180 48
-60 -30 -170 -132 -187 -173 -29 -70 9 -104 106 -95 l61 5 419 -428 c230 -235
431 -441 446 -457 l27 -30 -51 -65 c-161 -206 -309 -473 -376 -681 -93 -287
-97 -558 -12 -790 17 -46 86 -248 154 -449 68 -201 143 -412 166 -470 93 -234
208 -443 327 -595 50 -63 63 -74 98 -80 112 -20 271 -95 485 -228 325 -203
492 -268 681 -266 l94 2 -75 7 c-112 11 -179 52 -223 135 -29 56 -35 202 -12
315 37 182 146 447 281 687 238 422 583 856 1008 1266 101 97 92 100 -29 8
-209 -160 -402 -383 -775 -891 -191 -261 -233 -327 -302 -482 -88 -197 -148
-380 -237 -727 -28 -106 -53 -196 -56 -199 -12 -13 -92 57 -122 107 -77 128
-68 290 29 545 54 144 256 553 338 685 232 374 488 695 845 1060 209 214 221
234 66 112 -250 -196 -754 -829 -1013 -1271 -217 -369 -322 -684 -335 -1002
-3 -76 -9 -138 -14 -138 -14 0 -104 76 -130 111 -130 170 -130 435 1 789 93
254 181 431 317 644 227 355 365 522 470 568 38 17 46 17 70 5 49 -26 92 -30
118 -13 29 19 41 54 60 183 8 57 24 125 34 153 l19 49 -30 -15 c-43 -22 -58
-12 -58 38 0 23 -7 98 -16 166 -9 68 -14 164 -12 214 3 102 18 124 73 114 l30
-6 -30 20 c-16 11 -42 25 -57 31 -30 12 -41 39 -59 142 -16 97 -9 199 18 234
18 25 27 28 74 28 60 0 40 11 304 -169 586 -400 1007 -919 1189 -1466 42 -128
46 -146 66 -370 28 -297 37 -709 21 -891 -16 -166 -43 -333 -77 -462 -15 -54
-24 -101 -21 -104 20 -20 60 78 88 217 52 259 67 537 50 930 -19 449 -70 707
-191 966 -62 132 -113 210 -264 401 -305 388 -518 599 -787 777 -111 74 -277
159 -400 205 l-86 32 -22 237 c-13 130 -45 462 -72 736 -46 470 -48 500 -31
512 9 7 20 14 24 14 4 0 14 14 23 30 18 34 9 61 -28 84 -26 17 -151 24 -226
14z m141 -59 c10 -6 18 -16 16 -22 -7 -22 -112 -66 -186 -79 -65 -11 -74 -10
-89 5 -16 16 -15 20 26 61 28 29 55 47 75 49 44 7 135 -2 158 -14z m-97 -178
c30 -5 57 -5 68 1 10 5 21 8 23 5 12 -12 193 -1872 223 -2302 11 -154 23 -319
27 -367 l6 -88 -44 0 c-56 0 -85 19 -71 46 31 59 22 199 -48 744 -21 168 -55
436 -74 595 -54 439 -112 874 -150 1128 -19 125 -35 232 -35 237 0 12 8 12 75
1z m-2207 -388 c6 -63 -87 -132 -181 -133 -80 0 -73 41 19 116 33 27 60 40 93
45 62 8 66 7 69 -28z m163 -215 c236 -278 469 -525 1114 -1185 403 -411 586
-604 763 -805 106 -120 124 -158 77 -158 -21 0 -29 9 -50 56 -17 39 -53 85
-113 148 -48 50 -104 109 -123 131 -117 133 -1879 1850 -1897 1848 -8 0 -10 2
-6 7 16 13 119 80 125 80 3 0 52 -55 110 -122z m2046 -480 c-3 -7 -5 -2 -5 12
0 14 2 19 5 13 2 -7 2 -19 0 -25z m10 -90 c-2 -13 -4 -5 -4 17 -1 22 1 32 4
23 2 -10 2 -28 0 -40z m-247 -1465 c47 -48 72 -76 55 -62 -108 91 -383 362
-790 776 l-470 478 560 -552 c308 -303 598 -591 645 -640z m-405 326 c143
-144 253 -258 245 -254 -8 5 -60 43 -114 84 -121 92 -239 202 -294 273 -35 47
-105 158 -99 158 1 0 119 -118 262 -261z"/>
<path d="M3136 8153 c-66 -24 -72 -43 -12 -43 25 0 68 5 96 11 49 10 51 10 98
-24 72 -52 263 -162 502 -287 512 -269 649 -358 880 -567 91 -83 229 -215 306
-295 115 -117 135 -135 110 -94 -17 28 -38 64 -46 79 -19 38 -291 302 -421
409 -249 205 -529 372 -794 476 -27 11 -138 80 -246 153 -108 74 -205 139
-215 146 -15 9 -11 10 21 3 21 -5 147 -18 280 -30 312 -28 427 -49 530 -100
96 -47 148 -97 180 -176 l25 -59 0 97 0 96 38 -4 c20 -2 120 -11 222 -19 434
-36 646 -85 713 -164 43 -52 37 -64 -46 -84 -119 -28 -460 -212 -563 -304
l-39 -35 70 38 c39 21 118 68 178 105 122 77 223 121 340 151 141 36 257 8
341 -82 51 -55 77 -101 101 -185 34 -115 59 -172 240 -545 188 -385 238 -500
280 -642 28 -92 44 -205 38 -260 -5 -36 -6 -36 -42 -31 -119 18 -264 86 -487
230 -77 49 -146 93 -153 98 -26 15 28 -53 72 -90 73 -63 166 -112 360 -189
103 -41 216 -90 250 -110 59 -33 141 -107 166 -151 39 -66 -65 264 -149 475
-74 186 -104 253 -314 708 -95 208 -179 395 -186 417 -20 62 -78 174 -125 240
-52 73 -180 197 -255 246 -200 132 -393 185 -709 194 -220 6 -341 23 -601 82
-452 103 -557 119 -816 128 -147 5 -176 3 -218 -12z"/>
<path d="M3131 7834 c21 -25 132 -95 227 -143 45 -23 180 -80 300 -127 371
-146 434 -186 680 -428 502 -494 847 -949 1091 -1436 139 -280 180 -388 202
-540 70 -480 77 -826 23 -1089 -18 -87 -63 -224 -99 -303 -23 -51 -31 -58
-101 -94 -140 -71 -227 -57 -254 41 -19 66 -7 266 27 460 26 150 28 178 28
445 -1 224 -4 310 -18 400 -87 556 -358 1054 -827 1518 -500 496 -841 744
-1137 828 -115 32 -139 27 -46 -9 207 -81 523 -273 748 -453 220 -177 523
-497 727 -769 186 -249 287 -411 353 -569 161 -386 192 -770 125 -1586 -11
-135 -20 -268 -20 -296 0 -92 -48 -122 -256 -158 -49 -9 -100 -18 -114 -20
-14 -3 54 -3 150 -2 202 4 269 19 470 108 347 152 430 178 573 178 40 0 215 9
388 20 855 53 1450 75 1804 66 143 -4 457 -9 698 -12 362 -3 455 -2 533 11
138 22 226 56 334 129 104 71 150 90 380 161 359 109 455 207 395 402 -15 47
-206 149 -340 183 -131 32 -256 40 -617 40 -364 0 -454 8 -594 51 -90 28 -187
77 -251 128 -51 40 -51 41 -41 75 49 160 276 216 688 171 74 -8 227 -24 340
-35 113 -10 237 -24 275 -29 97 -14 370 -41 413 -41 24 0 33 3 26 10 -18 18
-229 67 -360 85 -210 27 -221 32 -82 31 113 -1 151 4 136 19 -8 8 -146 24
-318 36 -195 15 -898 13 -1115 -1 -303 -21 -464 -72 -583 -183 -58 -55 -112
-138 -112 -173 0 -52 198 -150 370 -183 118 -23 269 -29 475 -21 355 15 1125
12 1233 -5 171 -26 270 -73 308 -148 20 -37 22 -109 5 -158 -12 -36 -12 -36
-184 -92 -445 -146 -859 -218 -1672 -292 -154 -14 -338 -32 -410 -41 -381 -44
-437 -46 -1315 -51 -470 -3 -846 -9 -835 -13 80 -30 375 -40 820 -28 187 5
218 4 125 -2 -69 -6 -219 -19 -335 -30 -392 -37 -616 -36 -690 2 l-25 14 51
59 c251 295 396 584 593 1180 l87 260 -13 70 -12 70 -7 -70 c-5 -49 -38 -163
-112 -380 -123 -365 -194 -549 -243 -631 -36 -61 -74 -107 -81 -100 -3 2 -8
127 -13 278 -13 420 -55 710 -138 959 -37 115 -38 116 -13 90 64 -67 208 -144
380 -202 211 -71 183 -34 -34 43 -277 99 -360 178 -550 523 -106 193 -194 323
-251 370 -53 44 -53 42 22 -62 251 -350 462 -826 485 -1093 4 -58 23 -198 40
-310 56 -365 51 -584 -17 -737 -29 -68 -142 -228 -211 -304 -66 -71 -168 -149
-194 -149 -27 0 -24 24 10 97 70 147 111 547 91 876 -13 206 -31 343 -71 536
-28 134 -35 154 -116 315 -182 365 -344 627 -571 926 -196 258 -447 526 -683
730 -190 164 -271 221 -369 260 -47 18 -179 78 -295 133 -224 106 -448 209
-479 221 -17 6 -17 5 -5 -10z m5634 -2604 c-117 -23 -175 -72 -175 -146 0 -60
28 -111 95 -172 67 -61 157 -108 245 -126 l65 -13 -115 -7 c-140 -9 -407 8
-545 35 -133 26 -223 70 -249 122 -17 36 -17 41 -2 81 10 27 39 65 75 99 50
48 69 59 142 81 124 38 235 52 409 53 73 1 86 -1 55 -7z m1514 -944 c-2 -2
-80 -35 -174 -74 -93 -39 -201 -85 -240 -102 -38 -17 -156 -67 -262 -111
l-192 -79 -633 1 c-523 1 -975 10 -868 17 14 1 117 11 230 21 113 11 241 22
285 26 778 62 1390 159 1780 284 60 19 82 24 74 17z"/>
<path d="M5018 7820 c-144 -49 -382 -175 -450 -238 -52 -48 -28 -52 35 -6 80
59 149 94 320 161 77 29 165 67 196 83 l56 29 -35 0 c-19 0 -74 -13 -122 -29z"/>
<path d="M2390 7770 c0 -24 31 -69 69 -99 52 -41 203 -112 254 -119 65 -8 38
13 -97 78 -77 37 -141 76 -174 105 -29 26 -52 42 -52 35z"/>
<path d="M5545 7440 c-213 -56 -603 -245 -572 -276 4 -5 16 -3 25 4 89 63 202
113 442 197 91 31 181 66 200 76 l35 18 -30 0 c-16 0 -61 -8 -100 -19z"/>
<path d="M5714 7152 c-98 -35 -264 -122 -396 -209 -143 -94 -128 -99 34 -12
51 28 110 62 130 76 21 14 92 45 160 69 111 41 168 73 168 96 0 12 -7 10 -96
-20z"/>
<path d="M2298 6972 c118 -68 214 -149 294 -249 l25 -31 -4 41 c-7 68 10 82
101 81 42 0 74 1 73 2 -2 2 -434 150 -522 179 -11 4 4 -7 33 -23z"/>
<path d="M5850 6849 c-106 -72 -224 -131 -312 -154 -126 -33 -259 -10 -337 59
-14 11 -8 1 12 -24 21 -25 73 -89 117 -142 72 -89 78 -94 73 -63 -11 68 50
116 241 189 156 61 252 112 282 151 47 62 33 59 -76 -16z"/>
<path d="M2901 6835 c-1 -5 -6 -30 -11 -55 -6 -33 -4 -82 11 -182 21 -146 24
-200 18 -345 -4 -85 -3 -91 13 -76 15 13 18 12 33 -14 15 -27 16 -20 11 117
-3 93 -10 164 -20 196 -9 29 -25 123 -35 210 -10 88 -19 155 -20 149z"/>
<path d="M2665 6600 c9 -16 18 -30 21 -30 2 0 -2 14 -11 30 -9 17 -18 30 -21
30 -2 0 2 -13 11 -30z"/>
<path d="M5464 6594 c23 -93 190 -205 448 -303 108 -40 188 -65 251 -75 59
-11 44 11 -20 29 -251 69 -445 169 -612 314 -69 60 -74 62 -67 35z"/>
<path d="M3403 6511 c31 -29 106 -89 165 -134 166 -125 265 -212 412 -363 241
-248 378 -479 432 -729 16 -76 19 -128 19 -335 -1 -136 6 -330 14 -435 35
-433 31 -619 -14 -659 -17 -16 -21 -14 -62 36 -24 29 -77 88 -117 131 -87 94
-126 151 -118 172 8 21 72 19 170 -4 76 -18 106 -18 106 -1 0 10 -29 16 -145
30 -97 12 -221 42 -264 64 -44 23 -80 66 -87 105 -5 27 -29 60 -100 134 -221
232 -273 354 -210 483 l25 49 -60 -65 c-236 -256 -460 -596 -573 -871 -20 -48
-55 -145 -78 -215 -42 -126 -43 -132 -43 -264 0 -74 4 -148 8 -163 16 -57 27
-13 27 109 0 141 15 226 67 389 49 153 108 264 129 243 8 -9 7 -75 -5 -443
-18 -519 1 -815 70 -1090 38 -154 110 -367 126 -373 20 -6 51 57 72 148 59
254 71 586 32 905 -30 246 -32 416 -7 465 34 63 60 68 39 8 -24 -70 -1 -209
49 -288 31 -50 35 -18 9 70 -28 90 -27 125 4 155 27 28 35 29 84 15 39 -11 39
-11 -41 49 -141 106 -211 260 -184 405 l7 36 65 -70 c70 -74 209 -172 399
-280 251 -143 351 -222 375 -296 12 -35 -1 -84 -22 -84 -31 0 -333 112 -421
156 -73 37 -49 18 73 -58 111 -69 192 -112 250 -134 31 -11 12 -13 -160 -14
-325 -1 -493 -21 -461 -53 7 -7 47 -4 138 14 242 45 500 27 698 -50 128 -49
202 -98 305 -201 71 -71 109 -119 149 -190 71 -124 220 -275 373 -377 122 -81
180 -105 203 -82 21 20 6 68 -51 159 -25 41 -63 110 -84 155 -53 111 -134 217
-296 390 -192 204 -248 269 -300 351 -93 148 -101 211 -114 904 -10 506 -17
612 -51 820 -18 111 -26 136 -71 220 -185 349 -493 671 -883 922 -135 87 -138
88 -72 29z m263 -1911 c87 -102 217 -252 289 -335 504 -578 898 -1064 1116
-1380 85 -122 191 -295 187 -305 -2 -5 -34 18 -71 52 -49 43 -78 80 -102 127
-62 122 -269 370 -970 1161 -237 267 -487 552 -558 633 -120 140 -141 156
-116 90 10 -27 9 -27 -20 7 -17 19 -30 42 -31 51 0 15 97 90 111 86 3 -1 77
-85 165 -187z m-239 -18 c33 -43 134 -163 223 -268 243 -284 336 -414 296
-414 -19 0 -313 178 -383 232 -83 65 -156 147 -190 216 -26 52 -28 67 -28 167
0 97 6 145 18 145 2 0 31 -35 64 -78z m-96 -817 c34 -637 28 -1166 -14 -1254
-30 -63 -67 -11 -101 142 -13 58 -27 115 -31 127 -5 14 -3 20 3 16 6 -3 16 9
23 27 10 25 14 208 16 837 l4 805 32 47 32 48 7 -193 c4 -105 17 -376 29 -602z
m358 570 c30 -38 313 -374 629 -745 315 -371 547 -648 515 -615 -144 150 -667
760 -993 1160 -63 77 -143 176 -179 220 -36 44 -57 73 -47 65 11 -8 44 -46 75
-85z m-516 -1020 c5 -403 4 -432 -9 -345 -16 111 -30 1082 -18 1220 7 72 9 45
15 -175 3 -143 9 -458 12 -700z m1095 178 c-21 -2 -55 -2 -75 0 -21 2 -4 4 37
4 41 0 58 -2 38 -4z m647 -603 c10 -11 16 -20 13 -20 -3 0 -13 9 -23 20 -10
11 -16 20 -13 20 3 0 13 -9 23 -20z"/>
<path d="M3265 6500 c-66 -52 -80 -80 -41 -80 28 0 86 61 86 90 0 26 0 26 -45
-10z"/>
<path d="M2745 6455 c10 -22 19 -48 22 -57 3 -10 9 -18 13 -18 5 0 17 -3 26
-7 13 -5 7 10 -20 48 -54 75 -60 80 -41 34z"/>
<path d="M2849 6346 c8 -9 24 -22 35 -28 19 -10 20 -10 7 6 -8 9 -24 22 -35
28 -19 10 -20 10 -7 -6z"/>
<path d="M3520 6237 c-19 -18 -48 -42 -65 -54 -16 -12 -24 -23 -17 -23 8 0 39
25 70 55 61 59 70 76 12 22z"/>
<path d="M3362 6129 c-18 -12 -31 -24 -28 -26 2 -3 22 7 43 21 45 31 32 35
-15 5z"/>
<path d="M2858 6103 c-19 -23 -31 -43 -24 -43 2 0 14 14 26 30 23 33 22 40 -2
13z"/>
<path d="M2987 6030 c8 -116 21 -156 21 -65 0 39 -6 88 -13 110 -13 38 -14 36
-8 -45z"/>
<path d="M2514 5608 c-49 -54 -61 -76 -20 -38 33 31 63 70 53 70 -2 0 -17 -15
-33 -32z"/>
<path d="M4139 5533 c-13 -16 -12 -17 4 -4 9 7 17 15 17 17 0 8 -8 3 -21 -13z"/>
<path d="M2388 5480 c-42 -35 -137 -175 -238 -355 -202 -357 -319 -471 -570
-556 -91 -30 -170 -65 -170 -74 0 -7 142 35 230 69 100 39 174 76 246 121 l51
33 -19 -66 c-15 -57 -42 -292 -33 -300 1 -2 11 30 20 70 53 215 231 633 334
783 66 95 196 305 189 305 -2 0 -20 -13 -40 -30z m-408 -709 c-5 -11 -15 -23
-21 -27 -6 -3 -3 5 6 20 20 30 30 35 15 7z"/>
<path d="M3959 5371 c-68 -60 -160 -146 -204 -191 l-80 -82 68 47 c37 26 67
50 67 54 0 4 16 26 35 48 66 78 108 67 270 -67 140 -116 184 -134 251 -104
l39 18 -30 3 c-154 16 -258 72 -306 165 -25 49 -25 132 0 181 10 20 18 37 16
37 -2 0 -59 -49 -126 -109z"/>
<path d="M3810 5117 c0 -94 139 -197 363 -272 111 -37 193 -54 167 -36 -8 6
-63 27 -122 45 -135 44 -200 85 -315 202 -92 91 -93 92 -93 61z"/>
<path d="M1714 5086 c-46 -20 -195 -44 -352 -56 -75 -6 -141 -13 -147 -14 -29
-9 164 -18 259 -12 184 12 296 42 296 81 0 18 -15 18 -56 1z"/>
<path d="M3590 4903 c0 -19 80 -112 144 -165 170 -143 430 -260 606 -274 l65
-5 -81 25 c-266 82 -496 207 -664 363 -38 36 -70 61 -70 56z"/>
<path d="M1873 4210 c0 -25 2 -35 4 -22 2 12 2 32 0 45 -2 12 -4 2 -4 -23z"/>
</g>
</svg>
